<svg width="482" height="282" viewBox="0 0 482 282" fill="none" xmlns="http://www.w3.org/2000/svg">
<rect x="0.588867" y="0.162109" width="481.166" height="281.062" rx="30" fill="url(#paint0_linear_232_4874)"/>
<mask id="mask0_232_4874" style="mask-type:alpha" maskUnits="userSpaceOnUse" x="0" y="0" width="482" height="282">
<rect x="0.588867" y="0.162109" width="481.166" height="281.062" rx="30" fill="#ED713C"/>
</mask>
<g mask="url(#mask0_232_4874)">
<ellipse opacity="0.1" cx="38.0135" cy="325.522" rx="245.165" ry="172.609" fill="black"/>
<ellipse opacity="0.08" cx="444.331" cy="-44.1358" rx="245.165" ry="172.609" fill="black"/>
</g>
<path d="M399.587 226.939L396.381 227.989L396.745 229.291L398.621 228.689V236.179H400.105V226.939H399.587ZM405.36 234.891L406.984 233.169C407.628 232.483 408.118 231.895 408.44 231.377C408.776 230.859 408.944 230.285 408.944 229.655C408.944 228.031 407.642 226.785 405.878 226.785C403.988 226.785 402.77 228.227 402.77 229.739C402.77 230.019 402.798 230.285 402.868 230.537H404.366C404.324 230.257 404.296 230.019 404.296 229.823C404.296 228.871 404.926 228.143 405.864 228.143C406.802 228.143 407.404 228.829 407.404 229.767C407.404 230.551 406.956 231.223 405.934 232.301L402.644 235.843V236.179H409.266V234.891H405.36ZM410.582 237.873H412.22L419.542 225.259H417.904L410.582 237.873ZM422.916 234.891L424.54 233.169C425.184 232.483 425.674 231.895 425.996 231.377C426.332 230.859 426.5 230.285 426.5 229.655C426.5 228.031 425.198 226.785 423.434 226.785C421.544 226.785 420.326 228.227 420.326 229.739C420.326 230.019 420.354 230.285 420.424 230.537H421.922C421.88 230.257 421.852 230.019 421.852 229.823C421.852 228.871 422.482 228.143 423.42 228.143C424.358 228.143 424.96 228.829 424.96 229.767C424.96 230.551 424.512 231.223 423.49 232.301L420.2 235.843V236.179H426.822V234.891H422.916ZM435.684 233.295H434.424V230.453H432.94V233.295H430.182L432.8 226.939H431.274L428.32 234.163V234.569H432.94V236.179H434.424V234.569H435.684V233.295Z" fill="white"/>
<path opacity="0.9" d="M53.5541 233.197C53.5541 231.335 52.0561 230.313 50.4041 230.313C49.9841 230.313 49.5921 230.355 49.2281 230.439V228.269H53.0361V226.939H47.7721V231.587H49.9001C51.2581 231.587 52.0281 232.175 52.0281 233.225C52.0281 234.289 51.2161 234.975 50.1101 234.975C49.1161 234.975 48.4301 234.457 47.8701 233.603L46.8341 234.345C47.4641 235.535 48.6261 236.333 50.1521 236.333C51.9861 236.333 53.5541 235.059 53.5541 233.197ZM58.0944 234.891L59.7184 233.169C60.3624 232.483 60.8524 231.895 61.1744 231.377C61.5104 230.859 61.6784 230.285 61.6784 229.655C61.6784 228.031 60.3764 226.785 58.6124 226.785C56.7224 226.785 55.5044 228.227 55.5044 229.739C55.5044 230.019 55.5324 230.285 55.6024 230.537H57.1004C57.0584 230.257 57.0304 230.019 57.0304 229.823C57.0304 228.871 57.6604 228.143 58.5984 228.143C59.5364 228.143 60.1384 228.829 60.1384 229.767C60.1384 230.551 59.6904 231.223 58.6684 232.301L55.3784 235.843V236.179H62.0004V234.891H58.0944ZM70.4141 229.991C70.4561 228.171 68.9021 226.757 67.1521 226.785C65.3881 226.785 63.8761 228.171 63.8761 229.977C63.8761 231.727 65.3181 233.071 66.9001 233.071C67.0541 233.071 67.1801 233.057 67.3061 233.029L65.0801 236.179H66.8441L69.1401 232.917C69.4621 232.469 69.7001 232.119 69.8541 231.867C70.0081 231.601 70.1481 231.321 70.2461 231.013C70.3581 230.691 70.4141 230.355 70.4141 229.991ZM68.9441 229.977C68.9441 230.495 68.7761 230.929 68.4261 231.279C68.0761 231.629 67.6561 231.811 67.1521 231.811C66.6341 231.811 66.2001 231.643 65.8501 231.293C65.5001 230.943 65.3321 230.495 65.3321 229.977C65.3321 229.459 65.5001 229.025 65.8501 228.675C66.2001 228.325 66.6341 228.143 67.1521 228.143C67.6561 228.143 68.0761 228.325 68.4261 228.675C68.7761 229.025 68.9441 229.459 68.9441 229.977ZM79.1414 233.295H77.8814V230.453H76.3974V233.295H73.6394L76.2574 226.939H74.7314L71.7774 234.163V234.569H76.3974V236.179H77.8814V234.569H79.1414V233.295ZM87.6705 234.891L89.2945 233.169C89.9385 232.483 90.4285 231.895 90.7505 231.377C91.0865 230.859 91.2545 230.285 91.2545 229.655C91.2545 228.031 89.9525 226.785 88.1885 226.785C86.2985 226.785 85.0805 228.227 85.0805 229.739C85.0805 230.019 85.1085 230.285 85.1785 230.537H86.6765C86.6345 230.257 86.6065 230.019 86.6065 229.823C86.6065 228.871 87.2365 228.143 88.1745 228.143C89.1125 228.143 89.7145 228.829 89.7145 229.767C89.7145 230.551 89.2665 231.223 88.2445 232.301L84.9545 235.843V236.179H91.5765V234.891H87.6705ZM100.438 233.295H99.1783V230.453H97.6943V233.295H94.9363L97.5543 226.939H96.0283L93.0743 234.163V234.569H97.6943V236.179H99.1783V234.569H100.438V233.295ZM108.1 233.211C108.1 232.413 107.862 231.769 107.386 231.279C106.91 230.789 106.336 230.481 105.65 230.369L107.89 227.345V226.939H102.136V228.297H105.58L103.424 231.195V231.601H104.446C105.804 231.601 106.574 232.175 106.574 233.225C106.574 234.275 105.79 234.975 104.684 234.975C103.732 234.975 103.074 234.457 102.514 233.603L101.478 234.331C102.094 235.521 103.228 236.333 104.726 236.333C106.546 236.333 108.1 235.087 108.1 233.211ZM116.453 233.141C116.453 231.391 115.025 230.047 113.415 230.047C113.261 230.047 113.135 230.061 113.009 230.089L115.235 226.939H113.485L111.175 230.201C110.853 230.663 110.615 231.013 110.461 231.265C110.307 231.517 110.181 231.797 110.069 232.119C109.971 232.427 109.915 232.763 109.915 233.127C109.873 234.947 111.427 236.361 113.177 236.333C114.941 236.333 116.453 234.947 116.453 233.141ZM114.983 233.141C114.983 233.659 114.801 234.107 114.451 234.457C114.101 234.807 113.681 234.975 113.177 234.975C112.659 234.975 112.239 234.807 111.889 234.457C111.539 234.107 111.371 233.659 111.371 233.141C111.371 232.623 111.539 232.189 111.889 231.839C112.239 231.489 112.659 231.307 113.177 231.307C113.681 231.307 114.101 231.489 114.451 231.839C114.801 232.189 114.983 232.623 114.983 233.141ZM129.604 233.295H128.344V230.453H126.86V233.295H124.102L126.72 226.939H125.194L122.24 234.163V234.569H126.86V236.179H128.344V234.569H129.604V233.295ZM130.58 226.939V228.269H134.92L130.846 236.179H132.456L136.922 227.345V226.939H130.58ZM144.764 233.771C144.764 232.595 143.98 231.825 142.762 231.377C143.784 230.831 144.33 230.117 144.33 229.151C144.33 228.409 144.05 227.821 143.504 227.415C142.958 226.995 142.258 226.785 141.418 226.785C140.564 226.785 139.864 226.995 139.304 227.415C138.758 227.821 138.478 228.409 138.478 229.151C138.478 230.145 139.038 230.831 140.046 231.377C138.814 231.825 138.044 232.595 138.044 233.771C138.044 235.325 139.43 236.333 141.418 236.333C143.392 236.333 144.764 235.325 144.764 233.771ZM139.892 229.207C139.892 228.465 140.522 228.003 141.418 228.003C142.3 228.003 142.916 228.465 142.916 229.207C142.916 229.893 142.454 230.257 141.404 230.705C140.354 230.243 139.892 229.879 139.892 229.207ZM143.266 233.715C143.266 234.555 142.608 235.101 141.418 235.101C140.228 235.101 139.542 234.555 139.542 233.715C139.542 232.889 140.172 232.455 141.404 232.021C142.636 232.469 143.266 232.875 143.266 233.715ZM146.846 231.475C146.846 234.205 148.008 236.333 150.374 236.333C152.754 236.333 153.888 234.205 153.888 231.475C153.888 230.061 153.594 228.927 152.992 228.073C152.404 227.219 151.536 226.785 150.374 226.785C149.212 226.785 148.344 227.219 147.742 228.087C147.14 228.941 146.846 230.075 146.846 231.475ZM152.348 231.489C152.348 233.673 151.732 234.975 150.374 234.975C149.016 234.975 148.386 233.673 148.386 231.489C148.386 229.263 149.044 228.143 150.374 228.143C151.69 228.143 152.348 229.263 152.348 231.489ZM163.026 234.891L164.65 233.169C165.294 232.483 165.784 231.895 166.106 231.377C166.442 230.859 166.61 230.285 166.61 229.655C166.61 228.031 165.308 226.785 163.544 226.785C161.654 226.785 160.436 228.227 160.436 229.739C160.436 230.019 160.464 230.285 160.534 230.537H162.032C161.99 230.257 161.962 230.019 161.962 229.823C161.962 228.871 162.592 228.143 163.53 228.143C164.468 228.143 165.07 228.829 165.07 229.767C165.07 230.551 164.622 231.223 163.6 232.301L160.31 235.843V236.179H166.932V234.891H163.026ZM175.794 233.295H174.534V230.453H173.05V233.295H170.292L172.91 226.939H171.384L168.43 234.163V234.569H173.05V236.179H174.534V234.569H175.794V233.295ZM183.707 233.141C183.707 231.391 182.279 230.047 180.669 230.047C180.515 230.047 180.389 230.061 180.263 230.089L182.489 226.939H180.739L178.429 230.201C178.107 230.663 177.869 231.013 177.715 231.265C177.561 231.517 177.435 231.797 177.323 232.119C177.225 232.427 177.169 232.763 177.169 233.127C177.127 234.947 178.681 236.361 180.431 236.333C182.195 236.333 183.707 234.947 183.707 233.141ZM182.237 233.141C182.237 233.659 182.055 234.107 181.705 234.457C181.355 234.807 180.935 234.975 180.431 234.975C179.913 234.975 179.493 234.807 179.143 234.457C178.793 234.107 178.625 233.659 178.625 233.141C178.625 232.623 178.793 232.189 179.143 231.839C179.493 231.489 179.913 231.307 180.431 231.307C180.935 231.307 181.355 231.489 181.705 231.839C182.055 232.189 182.237 232.623 182.237 233.141ZM192.252 233.771C192.252 232.595 191.468 231.825 190.25 231.377C191.272 230.831 191.818 230.117 191.818 229.151C191.818 228.409 191.538 227.821 190.992 227.415C190.446 226.995 189.746 226.785 188.906 226.785C188.052 226.785 187.352 226.995 186.792 227.415C186.246 227.821 185.966 228.409 185.966 229.151C185.966 230.145 186.526 230.831 187.534 231.377C186.302 231.825 185.532 232.595 185.532 233.771C185.532 235.325 186.918 236.333 188.906 236.333C190.88 236.333 192.252 235.325 192.252 233.771ZM187.38 229.207C187.38 228.465 188.01 228.003 188.906 228.003C189.788 228.003 190.404 228.465 190.404 229.207C190.404 229.893 189.942 230.257 188.892 230.705C187.842 230.243 187.38 229.879 187.38 229.207ZM190.754 233.715C190.754 234.555 190.096 235.101 188.906 235.101C187.716 235.101 187.03 234.555 187.03 233.715C187.03 232.889 187.66 232.455 188.892 232.021C190.124 232.469 190.754 232.875 190.754 233.715Z" fill="white"/>
<path d="M392.268 42.8926H410.853V76.2878H392.268V42.8926Z" fill="#FF5F00"/>
<path d="M379.7 93.0971V89.5571C379.7 88.1998 378.874 87.315 377.458 87.315C376.75 87.315 375.982 87.551 375.451 88.3181C375.039 87.669 374.449 87.315 373.564 87.315C372.973 87.315 372.384 87.4919 371.911 88.141V87.433H370.672V93.0971H371.911V89.97C371.911 88.9672 372.442 88.4949 373.269 88.4949C374.094 88.4949 374.508 89.026 374.508 89.97V93.0971H375.747V89.97C375.747 88.9672 376.336 88.4949 377.104 88.4949C377.93 88.4949 378.343 89.026 378.343 89.97V93.0971H379.7ZM398.049 87.433H396.043V85.722H394.804V87.433H393.683V88.5538H394.804V91.1501C394.804 92.4483 395.335 93.2151 396.751 93.2151C397.282 93.2151 397.872 93.0383 398.285 92.8023L397.931 91.7401C397.577 91.9761 397.164 92.0352 396.869 92.0352C396.279 92.0352 396.043 91.6812 396.043 91.091V88.5538H398.049V87.433ZM408.552 87.3148C407.844 87.3148 407.372 87.669 407.077 88.141V87.433H405.838V93.0971H407.077V89.9111C407.077 88.9672 407.49 88.4361 408.257 88.4361C408.493 88.4361 408.788 88.4952 409.024 88.5541L409.378 87.3742C409.142 87.315 408.788 87.315 408.552 87.315V87.3148ZM392.68 87.905C392.09 87.4919 391.264 87.315 390.379 87.315C388.963 87.315 388.019 88.023 388.019 89.144C388.019 90.0882 388.727 90.619 389.966 90.7962L390.556 90.8553C391.205 90.973 391.559 91.1501 391.559 91.4452C391.559 91.8581 391.087 92.1532 390.261 92.1532C389.435 92.1532 388.786 91.8581 388.373 91.5632L387.783 92.5072C388.432 92.9791 389.317 93.2151 390.202 93.2151C391.854 93.2151 392.798 92.4483 392.798 91.3861C392.798 90.3831 392.031 89.852 390.851 89.6751L390.261 89.616C389.73 89.5569 389.317 89.4391 389.317 89.0852C389.317 88.6721 389.73 88.4361 390.379 88.4361C391.087 88.4361 391.795 88.7309 392.149 88.908L392.68 87.905ZM425.603 87.315C424.895 87.315 424.423 87.669 424.128 88.141V87.433H422.889V93.0971H424.128V89.9111C424.128 88.9672 424.541 88.4361 425.308 88.4361C425.544 88.4361 425.839 88.4952 426.075 88.5541L426.429 87.3742C426.193 87.315 425.839 87.315 425.603 87.315ZM409.791 90.2651C409.791 91.9761 410.971 93.2151 412.8 93.2151C413.626 93.2151 414.216 93.0383 414.806 92.5663L414.216 91.5632C413.744 91.9172 413.272 92.0941 412.741 92.0941C411.738 92.0941 411.03 91.3861 411.03 90.2651C411.03 89.2031 411.738 88.4949 412.741 88.4361C413.272 88.4361 413.744 88.6129 414.216 88.9672L414.806 87.9641C414.216 87.4919 413.626 87.315 412.8 87.315C410.971 87.315 409.791 88.5541 409.791 90.2651ZM421.237 90.2651V87.433H419.998V88.141C419.585 87.6101 418.995 87.315 418.228 87.315C416.635 87.315 415.396 88.5541 415.396 90.2651C415.396 91.9761 416.635 93.2151 418.228 93.2151C419.054 93.2151 419.644 92.9203 419.998 92.3892V93.0971H421.237V90.2651ZM416.694 90.2651C416.694 89.262 417.343 88.4361 418.405 88.4361C419.408 88.4361 420.116 89.2031 420.116 90.2651C420.116 91.2681 419.408 92.0941 418.405 92.0941C417.343 92.0349 416.694 91.2681 416.694 90.2651ZM401.885 87.315C400.232 87.315 399.052 88.4949 399.052 90.2651C399.052 92.0352 400.232 93.2151 401.943 93.2151C402.769 93.2151 403.596 92.9791 404.245 92.4483L403.654 91.5632C403.182 91.9172 402.593 92.1532 402.003 92.1532C401.236 92.1532 400.468 91.7992 400.291 90.7959H404.481V90.3242C404.54 88.4949 403.478 87.315 401.884 87.315H401.885ZM401.885 88.3769C402.651 88.3769 403.183 88.8492 403.3 89.7342H400.35C400.468 88.9672 401 88.3769 401.885 88.3769ZM432.625 90.2651V85.1909H431.386V88.141C430.972 87.6101 430.383 87.315 429.615 87.315C428.022 87.315 426.783 88.5541 426.783 90.2651C426.783 91.9761 428.022 93.2151 429.615 93.2151C430.442 93.2151 431.032 92.9203 431.386 92.3892V93.0971H432.625V90.2651ZM428.082 90.2651C428.082 89.262 428.73 88.4361 429.793 88.4361C430.796 88.4361 431.504 89.2031 431.504 90.2651C431.504 91.2681 430.796 92.0941 429.793 92.0941C428.73 92.0349 428.082 91.2681 428.082 90.2651ZM386.662 90.2651V87.433H385.423V88.141C385.01 87.6101 384.42 87.315 383.653 87.315C382.06 87.315 380.821 88.5541 380.821 90.2651C380.821 91.9761 382.06 93.2151 383.653 93.2151C384.479 93.2151 385.069 92.9203 385.423 92.3892V93.0971H386.662V90.2651ZM382.06 90.2651C382.06 89.262 382.709 88.4361 383.771 88.4361C384.774 88.4361 385.482 89.2031 385.482 90.2651C385.482 91.2681 384.774 92.0941 383.771 92.0941C382.709 92.0349 382.06 91.2681 382.06 90.2651Z" fill="white"/>
<path d="M393.447 59.5909C393.447 52.8057 396.633 46.7874 401.53 42.8932C397.931 40.0611 393.388 38.3501 388.432 38.3501C376.69 38.3501 367.191 47.8493 367.191 59.5909C367.191 71.3322 376.69 80.8317 388.432 80.8317C393.388 80.8317 397.931 79.1207 401.53 76.2884C396.633 72.4533 393.447 66.376 393.447 59.5909Z" fill="#EB001B"/>
<path d="M435.928 59.5909C435.928 71.3322 426.429 80.8317 414.688 80.8317C409.732 80.8317 405.188 79.1207 401.589 76.2884C406.546 72.3944 409.673 66.376 409.673 59.5909C409.673 52.8057 406.486 46.7874 401.589 42.8932C405.188 40.0611 409.732 38.3501 414.688 38.3501C426.429 38.3501 435.929 47.9084 435.929 59.5909H435.928Z" fill="#F79E1B"/>
<path d="M55.2621 104.921C58.0341 104.501 59.9381 102.765 59.9381 100.189C59.9381 97.9488 58.4821 96.4368 55.7661 95.4008L53.6941 94.6168C52.1541 93.9448 51.4541 93.4128 51.4541 92.3208C51.4541 91.0608 52.6021 90.4448 54.0301 90.4448C55.4861 90.4448 56.5221 91.0888 57.5021 92.5168L59.5181 91.0048C58.5381 89.2688 57.1101 88.2328 55.2621 87.8968V84.6208H52.5461V87.9528C50.1661 88.4288 48.5141 90.0808 48.5141 92.3488C48.5141 94.3928 49.8581 95.9608 52.5741 97.0248L54.5061 97.7808C56.2141 98.5368 56.9981 99.1248 56.9981 100.245C56.9981 101.589 55.7661 102.401 54.0581 102.401C52.1821 102.401 50.6701 101.449 49.4661 99.5728L47.4221 101.085C48.5421 103.101 50.3061 104.445 52.5461 104.865V108.253H55.2621V104.921ZM76.6851 99.8248H74.1651V94.1408H71.1971V99.8248H65.6811L70.9171 87.1128H67.8651L61.9571 101.561V102.373H71.1971V105.593H74.1651V102.373H76.6851V99.8248ZM79.8787 110.577H82.2587L83.5747 102.625H80.1587L79.8787 110.577ZM99.8503 99.6288C99.8503 95.9048 96.8543 93.8608 93.5503 93.8608C92.7103 93.8608 91.9263 93.9448 91.1983 94.1128V89.7728H98.8143V87.1128H88.2863V96.4088H92.5423C95.2583 96.4088 96.7983 97.5848 96.7983 99.6848C96.7983 101.813 95.1743 103.185 92.9623 103.185C90.9743 103.185 89.6023 102.149 88.4823 100.441L86.4103 101.925C87.6703 104.305 89.9943 105.901 93.0463 105.901C96.7143 105.901 99.8503 103.353 99.8503 99.6288ZM101.946 87.1128V89.7728H110.626L102.478 105.593H105.698L114.63 87.9248V87.1128H101.946ZM116.153 96.1848C116.153 101.645 118.477 105.901 123.209 105.901C127.969 105.901 130.237 101.645 130.237 96.1848C130.237 93.3568 129.649 91.0888 128.445 89.3808C127.269 87.6728 125.533 86.8048 123.209 86.8048C120.885 86.8048 119.149 87.6728 117.945 89.4088C116.741 91.1168 116.153 93.3848 116.153 96.1848ZM127.157 96.2128C127.157 100.581 125.925 103.185 123.209 103.185C120.493 103.185 119.233 100.581 119.233 96.2128C119.233 91.7608 120.549 89.5208 123.209 89.5208C125.841 89.5208 127.157 91.7608 127.157 96.2128ZM133.828 110.577H136.208L137.524 102.625H134.108L133.828 110.577ZM154.388 100.777C154.388 98.4248 152.82 96.8848 150.384 95.9888C152.428 94.8968 153.52 93.4688 153.52 91.5368C153.52 90.0528 152.96 88.8768 151.868 88.0648C150.776 87.2248 149.376 86.8048 147.696 86.8048C145.988 86.8048 144.588 87.2248 143.468 88.0648C142.376 88.8768 141.816 90.0528 141.816 91.5368C141.816 93.5248 142.936 94.8968 144.952 95.9888C142.488 96.8848 140.948 98.4248 140.948 100.777C140.948 103.885 143.72 105.901 147.696 105.901C151.644 105.901 154.388 103.885 154.388 100.777ZM144.644 91.6488C144.644 90.1648 145.904 89.2408 147.696 89.2408C149.46 89.2408 150.692 90.1648 150.692 91.6488C150.692 93.0208 149.768 93.7488 147.668 94.6448C145.568 93.7208 144.644 92.9928 144.644 91.6488ZM151.392 100.665C151.392 102.345 150.076 103.437 147.696 103.437C145.316 103.437 143.944 102.345 143.944 100.665C143.944 99.0128 145.204 98.1448 147.668 97.2768C150.132 98.1728 151.392 98.9848 151.392 100.665ZM157.552 96.1848C157.552 101.645 159.876 105.901 164.608 105.901C169.368 105.901 171.636 101.645 171.636 96.1848C171.636 93.3568 171.048 91.0888 169.844 89.3808C168.668 87.6728 166.932 86.8048 164.608 86.8048C162.284 86.8048 160.548 87.6728 159.344 89.4088C158.14 91.1168 157.552 93.3848 157.552 96.1848ZM168.556 96.2128C168.556 100.581 167.324 103.185 164.608 103.185C161.892 103.185 160.632 100.581 160.632 96.2128C160.632 91.7608 161.948 89.5208 164.608 89.5208C167.24 89.5208 168.556 91.7608 168.556 96.2128Z" fill="white"/>
<path opacity="0.54" d="M47.0161 54.3673C46.9601 57.0133 49.2421 59.1833 51.8741 59.1413C53.5961 59.1413 55.0521 58.3153 55.8361 57.0133L54.7161 56.1873C54.0581 57.2093 53.1061 57.7833 51.8881 57.7833C49.9981 57.7833 48.5561 56.3273 48.5561 54.3673C48.5561 52.4073 49.9981 50.9513 51.8881 50.9513C53.1061 50.9513 54.0581 51.5253 54.7161 52.5473L55.8361 51.7213C55.0381 50.4193 53.5681 49.5933 51.8741 49.5933C49.2421 49.5513 46.9601 51.7213 47.0161 54.3673ZM57.4432 56.1033C57.4432 57.9513 58.7312 59.1413 60.4532 59.1413C62.1332 59.1413 63.4352 57.9513 63.4352 56.1033V52.1133H61.9652V56.2153C61.9652 57.1673 61.3072 57.7833 60.4532 57.7833C59.5572 57.7833 58.8992 57.1673 58.8992 56.2153V52.1133H57.4432V56.1033ZM69.4316 52.1133C69.2636 52.0713 69.0816 52.0433 68.8716 52.0433C68.0876 52.0433 67.3596 52.3933 66.8696 53.0093V52.1133H65.4976V58.9873H66.9676V55.3193C66.9676 54.1013 67.8216 53.4153 68.9836 53.4153H69.4316V52.1133ZM74.6816 52.1133C74.5136 52.0713 74.3316 52.0433 74.1216 52.0433C73.3376 52.0433 72.6096 52.3933 72.1196 53.0093V52.1133H70.7476V58.9873H72.2176V55.3193C72.2176 54.1013 73.0716 53.4153 74.2336 53.4153H74.6816V52.1133ZM82.0489 56.0333C82.1189 55.7113 82.1609 55.4033 82.1609 55.1093C82.1609 53.3173 80.8029 51.9593 78.9829 51.9593C77.0369 51.9173 75.3849 53.5833 75.4269 55.5573C75.4269 57.5873 77.0229 59.1413 79.1229 59.1413C80.1729 59.1413 81.0829 58.7773 81.8669 58.0353L81.1669 57.0273C80.5509 57.5733 79.8789 57.8393 79.1649 57.8393C77.9889 57.8393 77.1069 57.1533 76.9249 56.0333H82.0489ZM76.9529 54.8853C77.1769 53.8633 77.9609 53.2053 78.9269 53.2053C79.8929 53.2053 80.6769 53.8353 80.6909 54.8853H76.9529ZM89.8512 54.6893C89.8512 53.0513 88.8853 51.9593 87.2753 51.9593C86.4213 51.9593 85.7353 52.2393 85.2173 52.7853V52.1133H83.8453V58.9873H85.3153V54.8853C85.3153 53.9473 85.9733 53.2893 86.8833 53.2893C87.7793 53.2893 88.3813 53.9333 88.3813 54.8853V58.9873H89.8512V54.6893ZM95.986 57.7413C95.58 57.7833 95.286 57.8113 95.076 57.8113C94.18 57.8113 93.718 57.5033 93.718 56.6213V53.3873H95.762V52.1133H93.718V50.3073H92.234V52.1133H91.114V53.3873H92.234V56.7473C92.234 58.3573 93.186 59.1413 94.768 59.1413C95.118 59.1413 95.524 59.0853 95.986 58.9873V57.7413ZM108.456 56.2993C108.456 55.1653 107.812 54.2973 106.734 53.9473C107.238 53.5133 107.504 52.9253 107.504 52.2113C107.504 50.7833 106.398 49.7473 104.732 49.7473H101.498V58.9873H105.46C107.266 58.9873 108.456 57.8533 108.456 56.2993ZM104.592 51.0493C105.502 51.0493 106.02 51.5113 106.02 52.2813C106.02 53.0513 105.502 53.5413 104.592 53.5413H102.954V51.0493H104.592ZM106.958 56.2573C106.958 57.1393 106.356 57.6853 105.334 57.6853H102.954V54.8153H105.334C106.356 54.8153 106.958 55.3753 106.958 56.2573ZM115.514 54.8293C115.514 52.9813 114.394 51.9593 112.7 51.9593C111.51 51.9593 110.488 52.4353 109.802 53.4293L110.656 54.2973C111.23 53.6113 111.79 53.2753 112.56 53.2753C113.498 53.2753 114.03 53.7933 114.03 54.7453V55.1933H112.084C110.53 55.1933 109.55 55.9633 109.55 57.1533C109.55 58.3433 110.502 59.1413 111.944 59.1413C112.882 59.1413 113.638 58.8193 114.142 58.2173V58.9873H115.514V54.8293ZM114.03 56.3833C114.03 57.3213 113.246 58.0073 112.252 58.0073C111.538 58.0073 111.048 57.6713 111.048 57.0973C111.048 56.5373 111.482 56.2573 112.266 56.2573H114.03V56.3833ZM117.56 58.9873H119.03V48.4873H117.56V58.9873ZM126.616 54.8293C126.616 52.9813 125.496 51.9593 123.802 51.9593C122.612 51.9593 121.59 52.4353 120.904 53.4293L121.758 54.2973C122.332 53.6113 122.892 53.2753 123.662 53.2753C124.6 53.2753 125.132 53.7933 125.132 54.7453V55.1933H123.186C121.632 55.1933 120.652 55.9633 120.652 57.1533C120.652 58.3433 121.604 59.1413 123.046 59.1413C123.984 59.1413 124.74 58.8193 125.244 58.2173V58.9873H126.616V54.8293ZM125.132 56.3833C125.132 57.3213 124.348 58.0073 123.354 58.0073C122.64 58.0073 122.15 57.6713 122.15 57.0973C122.15 56.5373 122.584 56.2573 123.368 56.2573H125.132V56.3833ZM134.668 54.6893C134.668 53.0513 133.702 51.9593 132.092 51.9593C131.238 51.9593 130.552 52.2393 130.034 52.7853V52.1133H128.662V58.9873H130.132V54.8853C130.132 53.9473 130.79 53.2893 131.7 53.2893C132.596 53.2893 133.198 53.9333 133.198 54.8853V58.9873H134.668V54.6893ZM136.28 55.5433C136.28 57.5453 137.89 59.1413 139.92 59.1413C141.166 59.1413 142.202 58.5393 142.818 57.5453L141.782 56.7473C141.278 57.4333 140.662 57.7833 139.934 57.7833C138.702 57.7833 137.778 56.8033 137.778 55.5433C137.778 54.2973 138.702 53.3173 139.934 53.3173C140.676 53.3173 141.292 53.6673 141.782 54.3673L142.818 53.5553C142.216 52.5613 141.194 51.9593 139.92 51.9593C137.946 51.9313 136.238 53.5693 136.28 55.5433ZM150.49 56.0333C150.56 55.7113 150.602 55.4033 150.602 55.1093C150.602 53.3173 149.244 51.9593 147.424 51.9593C145.478 51.9173 143.826 53.5833 143.868 55.5573C143.868 57.5873 145.464 59.1413 147.564 59.1413C148.614 59.1413 149.524 58.7773 150.308 58.0353L149.608 57.0273C148.992 57.5733 148.32 57.8393 147.606 57.8393C146.43 57.8393 145.548 57.1533 145.366 56.0333H150.49ZM145.394 54.8853C145.618 53.8633 146.402 53.2053 147.368 53.2053C148.334 53.2053 149.118 53.8353 149.132 54.8853H145.394Z" fill="white"/>
<defs>
<linearGradient id="paint0_linear_232_4874" x1="85.2076" y1="-44.2161" x2="135.791" y2="349.782" gradientUnits="userSpaceOnUse">
<stop stop-color="#E42C66"/>
<stop offset="1" stop-color="#F55B46"/>
</linearGradient>
</defs>
</svg>
