<svg width="222" height="282" viewBox="0 0 222 282" fill="none" xmlns="http://www.w3.org/2000/svg">
<rect x="0.266113" width="221.489" height="281.062" rx="30" fill="url(#paint0_linear_232_4916)"/>
<mask id="mask0_232_4916" style="mask-type:alpha" maskUnits="userSpaceOnUse" x="0" y="0" width="222" height="282">
<rect x="0.266113" width="221.489" height="281.062" rx="30" fill="#ED713C"/>
</mask>
<g mask="url(#mask0_232_4916)">
<circle opacity="0.1" cx="-42.5047" cy="294.81" r="154.609" fill="black" stroke="black" stroke-width="36"/>
<path opacity="0.1" d="M434.408 -40.479C434.408 68.0664 362.154 150.026 279.8 150.026C197.445 150.026 125.191 68.0664 125.191 -40.479C125.191 -149.024 197.445 -230.984 279.8 -230.984C362.154 -230.984 434.408 -149.024 434.408 -40.479Z" fill="black" stroke="black" stroke-width="36"/>
</g>
<path d="M165.639 223.683C165.639 225.828 166.552 227.5 168.411 227.5C170.281 227.5 171.172 225.828 171.172 223.683C171.172 222.572 170.941 221.681 170.468 221.01C170.006 220.339 169.324 219.998 168.411 219.998C167.498 219.998 166.816 220.339 166.343 221.021C165.87 221.692 165.639 222.583 165.639 223.683ZM169.962 223.694C169.962 225.41 169.478 226.433 168.411 226.433C167.344 226.433 166.849 225.41 166.849 223.694C166.849 221.945 167.366 221.065 168.411 221.065C169.445 221.065 169.962 221.945 169.962 223.694ZM177.475 222.517C177.508 221.087 176.287 219.976 174.912 219.998C173.526 219.998 172.338 221.087 172.338 222.506C172.338 223.881 173.471 224.937 174.714 224.937C174.835 224.937 174.934 224.926 175.033 224.904L173.284 227.379H174.67L176.474 224.816C176.727 224.464 176.914 224.189 177.035 223.991C177.156 223.782 177.266 223.562 177.343 223.32C177.431 223.067 177.475 222.803 177.475 222.517ZM176.32 222.506C176.32 222.913 176.188 223.254 175.913 223.529C175.638 223.804 175.308 223.947 174.912 223.947C174.505 223.947 174.164 223.815 173.889 223.54C173.614 223.265 173.482 222.913 173.482 222.506C173.482 222.099 173.614 221.758 173.889 221.483C174.164 221.208 174.505 221.065 174.912 221.065C175.308 221.065 175.638 221.208 175.913 221.483C176.188 221.758 176.32 222.099 176.32 222.506ZM176.689 228.71H177.976L183.729 218.799H182.442L176.689 228.71ZM185.988 226.367L187.264 225.014C187.77 224.475 188.155 224.013 188.408 223.606C188.672 223.199 188.804 222.748 188.804 222.253C188.804 220.977 187.781 219.998 186.395 219.998C184.91 219.998 183.953 221.131 183.953 222.319C183.953 222.539 183.975 222.748 184.03 222.946H185.207C185.174 222.726 185.152 222.539 185.152 222.385C185.152 221.637 185.647 221.065 186.384 221.065C187.121 221.065 187.594 221.604 187.594 222.341C187.594 222.957 187.242 223.485 186.439 224.332L183.854 227.115V227.379H189.057V226.367H185.988ZM195.253 225.036C195.253 223.573 194.076 222.77 192.778 222.77C192.448 222.77 192.14 222.803 191.854 222.869V221.164H194.846V220.119H190.71V223.771H192.382C193.449 223.771 194.054 224.233 194.054 225.058C194.054 225.894 193.416 226.433 192.547 226.433C191.766 226.433 191.227 226.026 190.787 225.355L189.973 225.938C190.468 226.873 191.381 227.5 192.58 227.5C194.021 227.5 195.253 226.499 195.253 225.036Z" fill="white"/>
<path d="M102.843 160.699L99.8657 161.674L100.204 162.883L101.946 162.324V169.279H103.324V160.699H102.843ZM107.739 168.083L109.247 166.484C109.845 165.847 110.3 165.301 110.599 164.82C110.911 164.339 111.067 163.806 111.067 163.221C111.067 161.713 109.858 160.556 108.22 160.556C106.465 160.556 105.334 161.895 105.334 163.299C105.334 163.559 105.36 163.806 105.425 164.04H106.816C106.777 163.78 106.751 163.559 106.751 163.377C106.751 162.493 107.336 161.817 108.207 161.817C109.078 161.817 109.637 162.454 109.637 163.325C109.637 164.053 109.221 164.677 108.272 165.678L105.217 168.967V169.279H111.366V168.083H107.739ZM118.962 167.043C118.962 165.951 118.234 165.236 117.103 164.82C118.052 164.313 118.559 163.65 118.559 162.753C118.559 162.064 118.299 161.518 117.792 161.141C117.285 160.751 116.635 160.556 115.855 160.556C115.062 160.556 114.412 160.751 113.892 161.141C113.385 161.518 113.125 162.064 113.125 162.753C113.125 163.676 113.645 164.313 114.581 164.82C113.437 165.236 112.722 165.951 112.722 167.043C112.722 168.486 114.009 169.422 115.855 169.422C117.688 169.422 118.962 168.486 118.962 167.043ZM114.438 162.805C114.438 162.116 115.023 161.687 115.855 161.687C116.674 161.687 117.246 162.116 117.246 162.805C117.246 163.442 116.817 163.78 115.842 164.196C114.867 163.767 114.438 163.429 114.438 162.805ZM117.571 166.991C117.571 167.771 116.96 168.278 115.855 168.278C114.75 168.278 114.113 167.771 114.113 166.991C114.113 166.224 114.698 165.821 115.842 165.418C116.986 165.834 117.571 166.211 117.571 166.991ZM126.294 163.533C126.333 161.843 124.89 160.53 123.265 160.556C121.627 160.556 120.223 161.843 120.223 163.52C120.223 165.145 121.562 166.393 123.031 166.393C123.174 166.393 123.291 166.38 123.408 166.354L121.341 169.279H122.979L125.111 166.25C125.41 165.834 125.631 165.509 125.774 165.275C125.917 165.028 126.047 164.768 126.138 164.482C126.242 164.183 126.294 163.871 126.294 163.533ZM124.929 163.52C124.929 164.001 124.773 164.404 124.448 164.729C124.123 165.054 123.733 165.223 123.265 165.223C122.784 165.223 122.381 165.067 122.056 164.742C121.731 164.417 121.575 164.001 121.575 163.52C121.575 163.039 121.731 162.636 122.056 162.311C122.381 161.986 122.784 161.817 123.265 161.817C123.733 161.817 124.123 161.986 124.448 162.311C124.773 162.636 124.929 163.039 124.929 163.52Z" fill="white"/>
<circle cx="75.1136" cy="171.081" r="3.05502" fill="white"/>
<circle cx="44.5638" cy="171.081" r="3.05502" fill="white"/>
<circle cx="59.8387" cy="171.081" r="3.05502" fill="white"/>
<circle cx="29.2884" cy="171.081" r="3.05502" fill="white"/>
<rect x="26.2334" y="209.269" width="50.4078" height="33.6052" rx="5" fill="url(#paint1_radial_232_4916)"/>
<path fill-rule="evenodd" clip-rule="evenodd" d="M51.4383 209.604L45.8374 218.386C45.8374 218.386 48.0778 226.07 45.8374 232.657L51.4383 242.537L57.0391 232.657C57.0391 232.657 54.7988 227.168 57.0391 218.386C57.0391 218.386 51.4383 209.604 51.4383 209.604Z" stroke="#C7C7B6" stroke-width="1.3" stroke-linejoin="bevel"/>
<path d="M26.2334 218.789H45.8364" stroke="#C7C7B6" stroke-width="1.3" stroke-linejoin="bevel"/>
<path d="M56.478 218.789H76.6412" stroke="#C7C7B6" stroke-width="1.3" stroke-linejoin="bevel"/>
<path d="M26.2334 232.231H45.8364" stroke="#C7C7B6" stroke-width="1.3" stroke-linejoin="bevel"/>
<path d="M56.478 232.231H76.6412" stroke="#C7C7B6" stroke-width="1.3" stroke-linejoin="bevel"/>
<path opacity="0.5" d="M26.7494 135.351C26.7014 137.619 28.6574 139.479 30.9134 139.443C32.3894 139.443 33.6374 138.735 34.3094 137.619L33.3494 136.911C32.7854 137.787 31.9694 138.279 30.9254 138.279C29.3054 138.279 28.0694 137.031 28.0694 135.351C28.0694 133.671 29.3054 132.423 30.9254 132.423C31.9694 132.423 32.7854 132.915 33.3494 133.791L34.3094 133.083C33.6254 131.967 32.3654 131.259 30.9134 131.259C28.6574 131.223 26.7014 133.083 26.7494 135.351ZM39.119 133.419C38.975 133.383 38.819 133.359 38.639 133.359C37.967 133.359 37.343 133.659 36.923 134.187V133.419H35.747V139.311H37.007V136.167C37.007 135.123 37.739 134.535 38.735 134.535H39.119V133.419ZM45.4338 136.779C45.4938 136.503 45.5298 136.239 45.5298 135.987C45.5298 134.451 44.3658 133.287 42.8058 133.287C41.1378 133.251 39.7218 134.679 39.7578 136.371C39.7578 138.111 41.1258 139.443 42.9258 139.443C43.8258 139.443 44.6058 139.131 45.2778 138.495L44.6778 137.631C44.1498 138.099 43.5738 138.327 42.9618 138.327C41.9538 138.327 41.1978 137.739 41.0418 136.779H45.4338ZM41.0658 135.795C41.2578 134.919 41.9298 134.355 42.7578 134.355C43.5858 134.355 44.2578 134.895 44.2698 135.795H41.0658ZM51.4495 130.311V134.139C51.0055 133.599 50.2975 133.287 49.4815 133.287C47.8495 133.251 46.5655 134.655 46.6015 136.371C46.6015 138.111 47.8255 139.443 49.4815 139.443C50.3575 139.443 51.1135 139.083 51.5455 138.471V139.311H52.7215V130.311H51.4495ZM51.4735 136.371C51.4735 137.655 50.6215 138.291 49.6975 138.291C48.6535 138.291 47.8855 137.487 47.8855 136.359C47.8855 135.231 48.6895 134.439 49.6975 134.439C50.6095 134.439 51.4735 135.099 51.4735 136.371ZM54.5438 139.311H55.8038V133.419H54.5438V139.311ZM54.3158 131.223C54.3158 131.691 54.6998 132.051 55.1798 132.051C55.6478 132.051 56.0318 131.691 56.0318 131.223C56.0318 130.755 55.6478 130.383 55.1798 130.383C54.6998 130.383 54.3158 130.755 54.3158 131.223ZM61.1299 138.243C60.7819 138.279 60.5299 138.303 60.3499 138.303C59.5819 138.303 59.1859 138.039 59.1859 137.283V134.511H60.9379V133.419H59.1859V131.871H57.9139V133.419H56.9539V134.511H57.9139V137.391C57.9139 138.771 58.7299 139.443 60.0859 139.443C60.3859 139.443 60.7339 139.395 61.1299 139.311V138.243ZM65.3744 135.351C65.3264 137.619 67.2824 139.479 69.5384 139.443C71.0144 139.443 72.2624 138.735 72.9344 137.619L71.9744 136.911C71.4104 137.787 70.5944 138.279 69.5504 138.279C67.9304 138.279 66.6944 137.031 66.6944 135.351C66.6944 133.671 67.9304 132.423 69.5504 132.423C70.5944 132.423 71.4104 132.915 71.9744 133.791L72.9344 133.083C72.2504 131.967 70.9904 131.259 69.5384 131.259C67.2824 131.223 65.3264 133.083 65.3744 135.351ZM78.9934 135.747C78.9934 134.163 78.0334 133.287 76.5814 133.287C75.5614 133.287 74.6854 133.695 74.0974 134.547L74.8294 135.291C75.3214 134.703 75.8014 134.415 76.4614 134.415C77.2654 134.415 77.7214 134.859 77.7214 135.675V136.059H76.0534C74.7214 136.059 73.8814 136.719 73.8814 137.739C73.8814 138.759 74.6974 139.443 75.9334 139.443C76.7374 139.443 77.3854 139.167 77.8174 138.651V139.311H78.9934V135.747ZM77.7214 137.079C77.7214 137.883 77.0494 138.471 76.1974 138.471C75.5854 138.471 75.1654 138.183 75.1654 137.691C75.1654 137.211 75.5374 136.971 76.2094 136.971H77.7214V137.079ZM84.119 133.419C83.975 133.383 83.819 133.359 83.639 133.359C82.967 133.359 82.343 133.659 81.923 134.187V133.419H80.747V139.311H82.007V136.167C82.007 135.123 82.739 134.535 83.735 134.535H84.119V133.419ZM89.6058 130.311V134.139C89.1618 133.599 88.4538 133.287 87.6378 133.287C86.0058 133.251 84.7218 134.655 84.7578 136.371C84.7578 138.111 85.9818 139.443 87.6378 139.443C88.5138 139.443 89.2698 139.083 89.7018 138.471V139.311H90.8778V130.311H89.6058ZM89.6298 136.371C89.6298 137.655 88.7778 138.291 87.8538 138.291C86.8098 138.291 86.0418 137.487 86.0418 136.359C86.0418 135.231 86.8458 134.439 87.8538 134.439C88.7658 134.439 89.6298 135.099 89.6298 136.371Z" fill="white"/>
<path d="M51.3096 35.0935H69.8952V68.4887H51.3096V35.0935Z" fill="#B27BFF"/>
<path d="M52.4895 51.7911C52.4895 45.0059 55.6755 38.9876 60.5725 35.0933C56.9737 32.2613 52.4306 30.5503 47.4745 30.5503C35.7326 30.5503 26.2334 40.0495 26.2334 51.7911C26.2334 63.5324 35.7326 73.0319 47.4742 73.0319C52.4303 73.0319 56.9734 71.3209 60.5725 68.4886C55.6755 64.6534 52.4895 58.5762 52.4895 51.7911Z" fill="#9E59FF"/>
<path d="M94.971 51.7911C94.971 63.5324 85.4718 73.0319 73.7302 73.0319C68.774 73.0319 64.231 71.3209 60.6318 68.4886C65.588 64.5946 68.7152 58.5762 68.7152 51.7911C68.7152 45.0059 65.5289 38.9876 60.6318 35.0933C64.2307 32.2613 68.774 30.5503 73.7302 30.5503C85.4718 30.5503 94.9712 40.1086 94.9712 51.7911H94.971Z" fill="#9E59FF"/>
<defs>
<linearGradient id="paint0_linear_232_4916" x1="111.774" y1="-46.5971" x2="133.985" y2="315.175" gradientUnits="userSpaceOnUse">
<stop stop-color="#9C2CF3"/>
<stop offset="1" stop-color="#3A49F9"/>
</linearGradient>
<radialGradient id="paint1_radial_232_4916" cx="0" cy="0" r="1" gradientUnits="userSpaceOnUse" gradientTransform="translate(55.1802 221.51) rotate(141.302) scale(34.1703 33.9112)">
<stop stop-color="white"/>
<stop offset="1" stop-color="#DDDCDA"/>
</radialGradient>
</defs>
</svg>
