<svg width="222" height="282" viewBox="0 0 222 282" fill="none" xmlns="http://www.w3.org/2000/svg">
<rect y="0.162109" width="221.489" height="281.062" rx="30" fill="url(#paint0_linear_232_4890)"/>
<mask id="mask0_232_4890" style="mask-type:alpha" maskUnits="userSpaceOnUse" x="0" y="0" width="222" height="282">
<rect y="0.162109" width="221.489" height="281.062" rx="30" fill="#ED713C"/>
</mask>
<g mask="url(#mask0_232_4890)">
<circle opacity="0.1" cx="-42.7703" cy="294.971" r="154.609" fill="black" stroke="black" stroke-width="36"/>
<path opacity="0.1" d="M434.143 -40.3169C434.143 68.2285 361.889 150.188 279.534 150.188C197.18 150.188 124.926 68.2285 124.926 -40.3169C124.926 -148.862 197.18 -230.822 279.534 -230.822C361.889 -230.822 434.143 -148.862 434.143 -40.3169Z" fill="black" stroke="black" stroke-width="36"/>
</g>
<path d="M168.538 220.281L166.019 221.106L166.305 222.129L167.779 221.656V227.541H168.945V220.281H168.538ZM172.681 226.529L173.957 225.176C174.463 224.637 174.848 224.175 175.101 223.768C175.365 223.361 175.497 222.91 175.497 222.415C175.497 221.139 174.474 220.16 173.088 220.16C171.603 220.16 170.646 221.293 170.646 222.481C170.646 222.701 170.668 222.91 170.723 223.108H171.9C171.867 222.888 171.845 222.701 171.845 222.547C171.845 221.799 172.34 221.227 173.077 221.227C173.814 221.227 174.287 221.766 174.287 222.503C174.287 223.119 173.935 223.647 173.132 224.494L170.547 227.277V227.541H175.75V226.529H172.681ZM176.391 228.872H177.678L183.431 218.961H182.144L176.391 228.872ZM185.69 226.529L186.966 225.176C187.472 224.637 187.857 224.175 188.11 223.768C188.374 223.361 188.506 222.91 188.506 222.415C188.506 221.139 187.483 220.16 186.097 220.16C184.612 220.16 183.655 221.293 183.655 222.481C183.655 222.701 183.677 222.91 183.732 223.108H184.909C184.876 222.888 184.854 222.701 184.854 222.547C184.854 221.799 185.349 221.227 186.086 221.227C186.823 221.227 187.296 221.766 187.296 222.503C187.296 223.119 186.944 223.647 186.141 224.494L183.556 227.277V227.541H188.759V226.529H185.69ZM195.329 225.275H194.339V223.042H193.173V225.275H191.006L193.063 220.281H191.864L189.543 225.957V226.276H193.173V227.541H194.339V226.276H195.329V225.275Z" fill="white"/>
<path d="M102.409 168.245L103.917 166.646C104.515 166.009 104.97 165.463 105.269 164.982C105.581 164.501 105.737 163.968 105.737 163.383C105.737 161.875 104.528 160.718 102.89 160.718C101.135 160.718 100.004 162.057 100.004 163.461C100.004 163.721 100.03 163.968 100.095 164.202H101.486C101.447 163.942 101.421 163.721 101.421 163.539C101.421 162.655 102.006 161.979 102.877 161.979C103.748 161.979 104.307 162.616 104.307 163.487C104.307 164.215 103.891 164.839 102.942 165.84L99.8866 169.129V169.441H106.036V168.245H102.409ZM113.8 166.763H112.63V164.124H111.252V166.763H108.691L111.122 160.861H109.705L106.962 167.569V167.946H111.252V169.441H112.63V167.946H113.8V166.763ZM120.684 166.62C120.684 164.995 119.358 163.747 117.863 163.747C117.72 163.747 117.603 163.76 117.486 163.786L119.553 160.861H117.928L115.783 163.89C115.484 164.319 115.263 164.644 115.12 164.878C114.977 165.112 114.86 165.372 114.756 165.671C114.665 165.957 114.613 166.269 114.613 166.607C114.574 168.297 116.017 169.61 117.642 169.584C119.28 169.584 120.684 168.297 120.684 166.62ZM119.319 166.62C119.319 167.101 119.15 167.517 118.825 167.842C118.5 168.167 118.11 168.323 117.642 168.323C117.161 168.323 116.771 168.167 116.446 167.842C116.121 167.517 115.965 167.101 115.965 166.62C115.965 166.139 116.121 165.736 116.446 165.411C116.771 165.086 117.161 164.917 117.642 164.917C118.11 164.917 118.5 165.086 118.825 165.411C119.15 165.736 119.319 166.139 119.319 166.62ZM128.154 167.205C128.154 166.113 127.426 165.398 126.295 164.982C127.244 164.475 127.751 163.812 127.751 162.915C127.751 162.226 127.491 161.68 126.984 161.303C126.477 160.913 125.827 160.718 125.047 160.718C124.254 160.718 123.604 160.913 123.084 161.303C122.577 161.68 122.317 162.226 122.317 162.915C122.317 163.838 122.837 164.475 123.773 164.982C122.629 165.398 121.914 166.113 121.914 167.205C121.914 168.648 123.201 169.584 125.047 169.584C126.88 169.584 128.154 168.648 128.154 167.205ZM123.63 162.967C123.63 162.278 124.215 161.849 125.047 161.849C125.866 161.849 126.438 162.278 126.438 162.967C126.438 163.604 126.009 163.942 125.034 164.358C124.059 163.929 123.63 163.591 123.63 162.967ZM126.763 167.153C126.763 167.933 126.152 168.44 125.047 168.44C123.942 168.44 123.305 167.933 123.305 167.153C123.305 166.386 123.89 165.983 125.034 165.58C126.178 165.996 126.763 166.373 126.763 167.153Z" fill="white"/>
<circle cx="74.848" cy="171.243" r="3.05502" fill="white"/>
<circle cx="44.2977" cy="171.243" r="3.05502" fill="white"/>
<circle cx="59.5726" cy="171.243" r="3.05502" fill="white"/>
<circle cx="29.0228" cy="171.243" r="3.05502" fill="white"/>
<rect x="25.9678" y="209.431" width="50.4078" height="33.6052" rx="5" fill="url(#paint1_radial_232_4890)"/>
<path fill-rule="evenodd" clip-rule="evenodd" d="M51.1717 209.765L45.5708 218.547C45.5708 218.547 47.8111 226.232 45.5708 232.818L51.1717 242.698L56.7725 232.818C56.7725 232.818 54.5322 227.329 56.7725 218.547C56.7725 218.547 51.1717 209.765 51.1717 209.765Z" stroke="#C7C7B6" stroke-width="1.3" stroke-linejoin="bevel"/>
<path d="M25.9678 218.951H45.5708" stroke="#C7C7B6" stroke-width="1.3" stroke-linejoin="bevel"/>
<path d="M56.2119 218.951H76.375" stroke="#C7C7B6" stroke-width="1.3" stroke-linejoin="bevel"/>
<path d="M25.9678 232.393H45.5708" stroke="#C7C7B6" stroke-width="1.3" stroke-linejoin="bevel"/>
<path d="M56.2119 232.393H76.375" stroke="#C7C7B6" stroke-width="1.3" stroke-linejoin="bevel"/>
<path opacity="0.5" d="M26.4838 135.513C26.4358 137.781 28.3918 139.641 30.6478 139.605C32.1238 139.605 33.3718 138.897 34.0438 137.781L33.0838 137.073C32.5198 137.949 31.7038 138.441 30.6598 138.441C29.0398 138.441 27.8038 137.193 27.8038 135.513C27.8038 133.833 29.0398 132.585 30.6598 132.585C31.7038 132.585 32.5198 133.077 33.0838 133.953L34.0438 133.245C33.3598 132.129 32.0998 131.421 30.6478 131.421C28.3918 131.385 26.4358 133.245 26.4838 135.513ZM38.8533 133.581C38.7093 133.545 38.5533 133.521 38.3733 133.521C37.7013 133.521 37.0773 133.821 36.6573 134.349V133.581H35.4813V139.473H36.7413V136.329C36.7413 135.285 37.4733 134.697 38.4693 134.697H38.8533V133.581ZM45.1681 136.941C45.2281 136.665 45.2641 136.401 45.2641 136.149C45.2641 134.613 44.1001 133.449 42.5401 133.449C40.8721 133.413 39.4561 134.841 39.4921 136.533C39.4921 138.273 40.8601 139.605 42.6601 139.605C43.5601 139.605 44.3401 139.293 45.0121 138.657L44.4121 137.793C43.8841 138.261 43.3081 138.489 42.6961 138.489C41.6881 138.489 40.9321 137.901 40.7761 136.941H45.1681ZM40.8001 135.957C40.9921 135.081 41.6641 134.517 42.4921 134.517C43.3201 134.517 43.9921 135.057 44.0041 135.957H40.8001ZM51.1839 130.473V134.301C50.7399 133.761 50.0319 133.449 49.2159 133.449C47.5839 133.413 46.2999 134.817 46.3359 136.533C46.3359 138.273 47.5599 139.605 49.2159 139.605C50.0919 139.605 50.8479 139.245 51.2799 138.633V139.473H52.4559V130.473H51.1839ZM51.2079 136.533C51.2079 137.817 50.3559 138.453 49.4319 138.453C48.3879 138.453 47.6199 137.649 47.6199 136.521C47.6199 135.393 48.4239 134.601 49.4319 134.601C50.3439 134.601 51.2079 135.261 51.2079 136.533ZM54.2782 139.473H55.5382V133.581H54.2782V139.473ZM54.0502 131.385C54.0502 131.853 54.4342 132.213 54.9142 132.213C55.3822 132.213 55.7662 131.853 55.7662 131.385C55.7662 130.917 55.3822 130.545 54.9142 130.545C54.4342 130.545 54.0502 130.917 54.0502 131.385ZM60.8642 138.405C60.5162 138.441 60.2642 138.465 60.0842 138.465C59.3162 138.465 58.9202 138.201 58.9202 137.445V134.673H60.6722V133.581H58.9202V132.033H57.6482V133.581H56.6882V134.673H57.6482V137.553C57.6482 138.933 58.4642 139.605 59.8202 139.605C60.1202 139.605 60.4682 139.557 60.8642 139.473V138.405ZM65.1088 135.513C65.0608 137.781 67.0168 139.641 69.2728 139.605C70.7488 139.605 71.9968 138.897 72.6688 137.781L71.7088 137.073C71.1448 137.949 70.3288 138.441 69.2848 138.441C67.6648 138.441 66.4288 137.193 66.4288 135.513C66.4288 133.833 67.6648 132.585 69.2848 132.585C70.3288 132.585 71.1448 133.077 71.7088 133.953L72.6688 133.245C71.9848 132.129 70.7248 131.421 69.2728 131.421C67.0168 131.385 65.0608 133.245 65.1088 135.513ZM78.7277 135.909C78.7277 134.325 77.7677 133.449 76.3157 133.449C75.2957 133.449 74.4197 133.857 73.8317 134.709L74.5637 135.453C75.0557 134.865 75.5357 134.577 76.1957 134.577C76.9997 134.577 77.4557 135.021 77.4557 135.837V136.221H75.7877C74.4557 136.221 73.6157 136.881 73.6157 137.901C73.6157 138.921 74.4317 139.605 75.6677 139.605C76.4717 139.605 77.1197 139.329 77.5517 138.813V139.473H78.7277V135.909ZM77.4557 137.241C77.4557 138.045 76.7837 138.633 75.9317 138.633C75.3197 138.633 74.8997 138.345 74.8997 137.853C74.8997 137.373 75.2717 137.133 75.9437 137.133H77.4557V137.241ZM83.8533 133.581C83.7093 133.545 83.5533 133.521 83.3733 133.521C82.7013 133.521 82.0773 133.821 81.6573 134.349V133.581H80.4813V139.473H81.7413V136.329C81.7413 135.285 82.4733 134.697 83.4693 134.697H83.8533V133.581ZM89.3401 130.473V134.301C88.8961 133.761 88.1881 133.449 87.3721 133.449C85.7401 133.413 84.4561 134.817 84.4921 136.533C84.4921 138.273 85.7161 139.605 87.3721 139.605C88.2481 139.605 89.0041 139.245 89.4361 138.633V139.473H90.6121V130.473H89.3401ZM89.3641 136.533C89.3641 137.817 88.5121 138.453 87.5881 138.453C86.5441 138.453 85.7761 137.649 85.7761 136.521C85.7761 135.393 86.5801 134.601 87.5881 134.601C88.5001 134.601 89.3641 135.261 89.3641 136.533Z" fill="white"/>
<path d="M51.0444 35.2554H69.63V68.6506H51.0444V35.2554Z" fill="#FF8AA2"/>
<path d="M52.2239 51.9532C52.2239 45.168 55.4099 39.1497 60.3069 35.2555C56.708 32.4234 52.165 30.7124 47.2088 30.7124C35.467 30.7124 25.9678 40.2116 25.9678 51.9532C25.9678 63.6945 35.467 73.194 47.2086 73.194C52.1647 73.194 56.7078 71.483 60.3069 68.6507C55.4099 64.8156 52.2239 58.7383 52.2239 51.9532Z" fill="#FD6887"/>
<path d="M94.7049 51.9532C94.7049 63.6945 85.2056 73.194 73.4641 73.194C68.5079 73.194 63.9649 71.483 60.3657 68.6507C65.3219 64.7567 68.449 58.7383 68.449 51.9532C68.449 45.168 65.2628 39.1497 60.3657 35.2555C63.9646 32.4234 68.5079 30.7124 73.4641 30.7124C85.2056 30.7124 94.7051 40.2707 94.7051 51.9532H94.7049Z" fill="#FD6887"/>
<defs>
<linearGradient id="paint0_linear_232_4890" x1="38.9515" y1="-44.2161" x2="142.589" y2="327.371" gradientUnits="userSpaceOnUse">
<stop stop-color="#E42C66"/>
<stop offset="1" stop-color="#F55B46"/>
</linearGradient>
<radialGradient id="paint1_radial_232_4890" cx="0" cy="0" r="1" gradientUnits="userSpaceOnUse" gradientTransform="translate(54.9146 221.672) rotate(141.302) scale(34.1703 33.9112)">
<stop stop-color="white"/>
<stop offset="1" stop-color="#DDDCDA"/>
</radialGradient>
</defs>
</svg>
