<svg width="482" height="282" viewBox="0 0 482 282" fill="none" xmlns="http://www.w3.org/2000/svg">
<rect width="481.166" height="281.062" rx="30" fill="url(#paint0_linear_232_4942)"/>
<mask id="mask0_232_4942" style="mask-type:alpha" maskUnits="userSpaceOnUse" x="0" y="0" width="482" height="282">
<rect width="481.166" height="281.062" rx="30" fill="#ED713C"/>
</mask>
<g mask="url(#mask0_232_4942)">
<ellipse opacity="0.1" cx="37.4236" cy="325.36" rx="245.165" ry="172.609" fill="black"/>
<ellipse opacity="0.08" cx="443.741" cy="-44.2976" rx="245.165" ry="172.609" fill="black"/>
</g>
<path d="M394.97 231.313C394.97 234.043 396.132 236.171 398.498 236.171C400.878 236.171 402.012 234.043 402.012 231.313C402.012 229.899 401.718 228.765 401.116 227.911C400.528 227.057 399.66 226.623 398.498 226.623C397.336 226.623 396.468 227.057 395.866 227.925C395.264 228.779 394.97 229.913 394.97 231.313ZM400.472 231.327C400.472 233.511 399.856 234.813 398.498 234.813C397.14 234.813 396.51 233.511 396.51 231.327C396.51 229.101 397.168 227.981 398.498 227.981C399.814 227.981 400.472 229.101 400.472 231.327ZM410.534 229.829C410.576 228.009 409.022 226.595 407.272 226.623C405.508 226.623 403.996 228.009 403.996 229.815C403.996 231.565 405.438 232.909 407.02 232.909C407.174 232.909 407.3 232.895 407.426 232.867L405.2 236.017H406.964L409.26 232.755C409.582 232.307 409.82 231.957 409.974 231.705C410.128 231.439 410.268 231.159 410.366 230.851C410.478 230.529 410.534 230.193 410.534 229.829ZM409.064 229.815C409.064 230.333 408.896 230.767 408.546 231.117C408.196 231.467 407.776 231.649 407.272 231.649C406.754 231.649 406.32 231.481 405.97 231.131C405.62 230.781 405.452 230.333 405.452 229.815C405.452 229.297 405.62 228.863 405.97 228.513C406.32 228.163 406.754 227.981 407.272 227.981C407.776 227.981 408.196 228.163 408.546 228.513C408.896 228.863 409.064 229.297 409.064 229.815ZM410.033 237.711H411.671L418.993 225.097H417.355L410.033 237.711ZM422.368 234.729L423.992 233.007C424.636 232.321 425.126 231.733 425.448 231.215C425.784 230.697 425.952 230.123 425.952 229.493C425.952 227.869 424.65 226.623 422.886 226.623C420.996 226.623 419.778 228.065 419.778 229.577C419.778 229.857 419.806 230.123 419.876 230.375H421.374C421.332 230.095 421.304 229.857 421.304 229.661C421.304 228.709 421.934 227.981 422.872 227.981C423.81 227.981 424.412 228.667 424.412 229.605C424.412 230.389 423.964 231.061 422.942 232.139L419.652 235.681V236.017H426.274V234.729H422.368ZM434.66 233.035C434.66 231.173 433.162 230.151 431.51 230.151C431.09 230.151 430.698 230.193 430.334 230.277V228.107H434.142V226.777H428.878V231.425H431.006C432.364 231.425 433.134 232.013 433.134 233.063C433.134 234.127 432.322 234.813 431.216 234.813C430.222 234.813 429.536 234.295 428.976 233.441L427.94 234.183C428.57 235.373 429.732 236.171 431.258 236.171C433.092 236.171 434.66 234.897 434.66 233.035Z" fill="white"/>
<path opacity="0.9" d="M52.9652 233.035C52.9652 231.173 51.4672 230.151 49.8152 230.151C49.3952 230.151 49.0032 230.193 48.6392 230.277V228.107H52.4472V226.777H47.1832V231.425H49.3112C50.6692 231.425 51.4392 232.013 51.4392 233.063C51.4392 234.127 50.6272 234.813 49.5212 234.813C48.5272 234.813 47.8412 234.295 47.2812 233.441L46.2452 234.183C46.8752 235.373 48.0372 236.171 49.5632 236.171C51.3972 236.171 52.9652 234.897 52.9652 233.035ZM57.5055 234.729L59.1295 233.007C59.7735 232.321 60.2635 231.733 60.5855 231.215C60.9215 230.697 61.0895 230.123 61.0895 229.493C61.0895 227.869 59.7875 226.623 58.0235 226.623C56.1335 226.623 54.9155 228.065 54.9155 229.577C54.9155 229.857 54.9435 230.123 55.0135 230.375H56.5115C56.4695 230.095 56.4415 229.857 56.4415 229.661C56.4415 228.709 57.0715 227.981 58.0095 227.981C58.9475 227.981 59.5495 228.667 59.5495 229.605C59.5495 230.389 59.1015 231.061 58.0795 232.139L54.7895 235.681V236.017H61.4115V234.729H57.5055ZM70.0912 233.609C70.0912 232.433 69.3072 231.663 68.0892 231.215C69.1112 230.669 69.6572 229.955 69.6572 228.989C69.6572 228.247 69.3772 227.659 68.8312 227.253C68.2852 226.833 67.5852 226.623 66.7452 226.623C65.8912 226.623 65.1912 226.833 64.6312 227.253C64.0852 227.659 63.8052 228.247 63.8052 228.989C63.8052 229.983 64.3652 230.669 65.3732 231.215C64.1412 231.663 63.3712 232.433 63.3712 233.609C63.3712 235.163 64.7572 236.171 66.7452 236.171C68.7192 236.171 70.0912 235.163 70.0912 233.609ZM65.2192 229.045C65.2192 228.303 65.8492 227.841 66.7452 227.841C67.6272 227.841 68.2432 228.303 68.2432 229.045C68.2432 229.731 67.7812 230.095 66.7312 230.543C65.6812 230.081 65.2192 229.717 65.2192 229.045ZM68.5932 233.553C68.5932 234.393 67.9352 234.939 66.7452 234.939C65.5552 234.939 64.8692 234.393 64.8692 233.553C64.8692 232.727 65.4992 232.293 66.7312 231.859C67.9632 232.307 68.5932 232.713 68.5932 233.553ZM74.6793 234.729L76.3033 233.007C76.9473 232.321 77.4373 231.733 77.7593 231.215C78.0953 230.697 78.2633 230.123 78.2633 229.493C78.2633 227.869 76.9613 226.623 75.1973 226.623C73.3073 226.623 72.0893 228.065 72.0893 229.577C72.0893 229.857 72.1173 230.123 72.1873 230.375H73.6853C73.6433 230.095 73.6153 229.857 73.6153 229.661C73.6153 228.709 74.2453 227.981 75.1833 227.981C76.1213 227.981 76.7233 228.667 76.7233 229.605C76.7233 230.389 76.2753 231.061 75.2533 232.139L71.9633 235.681V236.017H78.5853V234.729H74.6793ZM91.1709 233.049C91.1709 232.251 90.9329 231.607 90.4569 231.117C89.9809 230.627 89.4069 230.319 88.7209 230.207L90.9609 227.183V226.777H85.2069V228.135H88.6509L86.4949 231.033V231.439H87.5169C88.8749 231.439 89.6449 232.013 89.6449 233.063C89.6449 234.113 88.8609 234.813 87.7549 234.813C86.8029 234.813 86.1449 234.295 85.5849 233.441L84.5489 234.169C85.1649 235.359 86.2989 236.171 87.7969 236.171C89.6169 236.171 91.1709 234.925 91.1709 233.049ZM99.9724 233.133H98.7124V230.291H97.2284V233.133H94.4704L97.0884 226.777H95.5624L92.6084 234.001V234.407H97.2284V236.017H98.7124V234.407H99.9724V233.133ZM107.858 233.035C107.858 231.173 106.36 230.151 104.708 230.151C104.288 230.151 103.896 230.193 103.532 230.277V228.107H107.34V226.777H102.076V231.425H104.204C105.562 231.425 106.332 232.013 106.332 233.063C106.332 234.127 105.52 234.813 104.414 234.813C103.42 234.813 102.734 234.295 102.174 233.441L101.138 234.183C101.768 235.373 102.93 236.171 104.456 236.171C106.29 236.171 107.858 234.897 107.858 233.035ZM116.206 232.979C116.206 231.229 114.778 229.885 113.168 229.885C113.014 229.885 112.888 229.899 112.762 229.927L114.988 226.777H113.238L110.928 230.039C110.606 230.501 110.368 230.851 110.214 231.103C110.06 231.355 109.934 231.635 109.822 231.957C109.724 232.265 109.668 232.601 109.668 232.965C109.626 234.785 111.18 236.199 112.93 236.171C114.694 236.171 116.206 234.785 116.206 232.979ZM114.736 232.979C114.736 233.497 114.554 233.945 114.204 234.295C113.854 234.645 113.434 234.813 112.93 234.813C112.412 234.813 111.992 234.645 111.642 234.295C111.292 233.945 111.124 233.497 111.124 232.979C111.124 232.461 111.292 232.027 111.642 231.677C111.992 231.327 112.412 231.145 112.93 231.145C113.434 231.145 113.854 231.327 114.204 231.677C114.554 232.027 114.736 232.461 114.736 232.979ZM122.245 226.777V228.107H126.585L122.511 236.017H124.121L128.587 227.183V226.777H122.245ZM136.429 233.609C136.429 232.433 135.645 231.663 134.427 231.215C135.449 230.669 135.995 229.955 135.995 228.989C135.995 228.247 135.715 227.659 135.169 227.253C134.623 226.833 133.923 226.623 133.083 226.623C132.229 226.623 131.529 226.833 130.969 227.253C130.423 227.659 130.143 228.247 130.143 228.989C130.143 229.983 130.703 230.669 131.711 231.215C130.479 231.663 129.709 232.433 129.709 233.609C129.709 235.163 131.095 236.171 133.083 236.171C135.057 236.171 136.429 235.163 136.429 233.609ZM131.557 229.045C131.557 228.303 132.187 227.841 133.083 227.841C133.965 227.841 134.581 228.303 134.581 229.045C134.581 229.731 134.119 230.095 133.069 230.543C132.019 230.081 131.557 229.717 131.557 229.045ZM134.931 233.553C134.931 234.393 134.273 234.939 133.083 234.939C131.893 234.939 131.207 234.393 131.207 233.553C131.207 232.727 131.837 232.293 133.069 231.859C134.301 232.307 134.931 232.713 134.931 233.553ZM144.825 229.829C144.867 228.009 143.313 226.595 141.563 226.623C139.799 226.623 138.287 228.009 138.287 229.815C138.287 231.565 139.729 232.909 141.311 232.909C141.465 232.909 141.591 232.895 141.717 232.867L139.491 236.017H141.255L143.551 232.755C143.873 232.307 144.111 231.957 144.265 231.705C144.419 231.439 144.559 231.159 144.657 230.851C144.769 230.529 144.825 230.193 144.825 229.829ZM143.355 229.815C143.355 230.333 143.187 230.767 142.837 231.117C142.487 231.467 142.067 231.649 141.563 231.649C141.045 231.649 140.611 231.481 140.261 231.131C139.911 230.781 139.743 230.333 139.743 229.815C139.743 229.297 139.911 228.863 140.261 228.513C140.611 228.163 141.045 227.981 141.563 227.981C142.067 227.981 142.487 228.163 142.837 228.513C143.187 228.863 143.355 229.297 143.355 229.815ZM146.791 231.313C146.791 234.043 147.953 236.171 150.319 236.171C152.699 236.171 153.833 234.043 153.833 231.313C153.833 229.899 153.539 228.765 152.937 227.911C152.349 227.057 151.481 226.623 150.319 226.623C149.157 226.623 148.289 227.057 147.687 227.925C147.085 228.779 146.791 229.913 146.791 231.313ZM152.293 231.327C152.293 233.511 151.677 234.813 150.319 234.813C148.961 234.813 148.331 233.511 148.331 231.327C148.331 229.101 148.989 227.981 150.319 227.981C151.635 227.981 152.293 229.101 152.293 231.327ZM163.152 226.777L159.946 227.827L160.31 229.129L162.186 228.527V236.017H163.67V226.777H163.152ZM168.925 234.729L170.549 233.007C171.193 232.321 171.683 231.733 172.005 231.215C172.341 230.697 172.509 230.123 172.509 229.493C172.509 227.869 171.207 226.623 169.443 226.623C167.553 226.623 166.335 228.065 166.335 229.577C166.335 229.857 166.363 230.123 166.433 230.375H167.931C167.889 230.095 167.861 229.857 167.861 229.661C167.861 228.709 168.491 227.981 169.429 227.981C170.367 227.981 170.969 228.667 170.969 229.605C170.969 230.389 170.521 231.061 169.499 232.139L166.209 235.681V236.017H172.831V234.729H168.925ZM181.511 233.609C181.511 232.433 180.727 231.663 179.509 231.215C180.531 230.669 181.077 229.955 181.077 228.989C181.077 228.247 180.797 227.659 180.251 227.253C179.705 226.833 179.005 226.623 178.165 226.623C177.311 226.623 176.611 226.833 176.051 227.253C175.505 227.659 175.225 228.247 175.225 228.989C175.225 229.983 175.785 230.669 176.793 231.215C175.561 231.663 174.791 232.433 174.791 233.609C174.791 235.163 176.177 236.171 178.165 236.171C180.139 236.171 181.511 235.163 181.511 233.609ZM176.639 229.045C176.639 228.303 177.269 227.841 178.165 227.841C179.047 227.841 179.663 228.303 179.663 229.045C179.663 229.731 179.201 230.095 178.151 230.543C177.101 230.081 176.639 229.717 176.639 229.045ZM180.013 233.553C180.013 234.393 179.355 234.939 178.165 234.939C176.975 234.939 176.289 234.393 176.289 233.553C176.289 232.727 176.919 232.293 178.151 231.859C179.383 232.307 180.013 232.713 180.013 233.553ZM189.907 229.829C189.949 228.009 188.395 226.595 186.645 226.623C184.881 226.623 183.369 228.009 183.369 229.815C183.369 231.565 184.811 232.909 186.393 232.909C186.547 232.909 186.673 232.895 186.799 232.867L184.573 236.017H186.337L188.633 232.755C188.955 232.307 189.193 231.957 189.347 231.705C189.501 231.439 189.641 231.159 189.739 230.851C189.851 230.529 189.907 230.193 189.907 229.829ZM188.437 229.815C188.437 230.333 188.269 230.767 187.919 231.117C187.569 231.467 187.149 231.649 186.645 231.649C186.127 231.649 185.693 231.481 185.343 231.131C184.993 230.781 184.825 230.333 184.825 229.815C184.825 229.297 184.993 228.863 185.343 228.513C185.693 228.163 186.127 227.981 186.645 227.981C187.149 227.981 187.569 228.163 187.919 228.513C188.269 228.863 188.437 229.297 188.437 229.815Z" fill="white"/>
<path d="M391.678 42.731H410.264V76.1262H391.678V42.731Z" fill="#FF5F00"/>
<path d="M379.112 92.9353V89.3953C379.112 88.038 378.285 87.1532 376.869 87.1532C376.161 87.1532 375.394 87.3891 374.863 88.1562C374.45 87.5071 373.86 87.1532 372.975 87.1532C372.385 87.1532 371.795 87.33 371.323 87.9791V87.2711H370.084V92.9353H371.323V89.8081C371.323 88.8053 371.854 88.3331 372.68 88.3331C373.506 88.3331 373.919 88.8642 373.919 89.8081V92.9353H375.158V89.8081C375.158 88.8053 375.748 88.3331 376.515 88.3331C377.341 88.3331 377.754 88.8642 377.754 89.8081V92.9353H379.112ZM397.461 87.2711H395.455V85.5601H394.216V87.2711H393.095V88.3919H394.216V90.9883C394.216 92.2864 394.747 93.0532 396.163 93.0532C396.694 93.0532 397.284 92.8764 397.697 92.6404L397.343 91.5782C396.989 91.8142 396.576 91.8733 396.281 91.8733C395.691 91.8733 395.455 91.5194 395.455 90.9291V88.3919H397.461V87.2711ZM407.963 87.1529C407.255 87.1529 406.783 87.5071 406.488 87.9791V87.2711H405.249V92.9353H406.488V89.7492C406.488 88.8053 406.901 88.2742 407.668 88.2742C407.904 88.2742 408.199 88.3333 408.435 88.3922L408.789 87.2123C408.553 87.1532 408.199 87.1532 407.963 87.1532V87.1529ZM392.092 87.7431C391.502 87.33 390.676 87.1532 389.791 87.1532C388.375 87.1532 387.431 87.8611 387.431 88.9822C387.431 89.9263 388.139 90.4572 389.378 90.6343L389.968 90.6934C390.617 90.8111 390.971 90.9883 390.971 91.2834C390.971 91.6962 390.499 91.9913 389.673 91.9913C388.847 91.9913 388.198 91.6962 387.785 91.4014L387.195 92.3453C387.844 92.8173 388.729 93.0532 389.614 93.0532C391.266 93.0532 392.21 92.2864 392.21 91.2243C392.21 90.2212 391.443 89.6901 390.263 89.5132L389.673 89.4541C389.142 89.395 388.729 89.2773 388.729 88.9233C388.729 88.5102 389.142 88.2742 389.791 88.2742C390.499 88.2742 391.207 88.5691 391.561 88.7462L392.092 87.7431ZM425.015 87.1532C424.307 87.1532 423.835 87.5071 423.54 87.9791V87.2711H422.301V92.9353H423.54V89.7492C423.54 88.8053 423.953 88.2742 424.72 88.2742C424.956 88.2742 425.251 88.3333 425.487 88.3922L425.841 87.2123C425.605 87.1532 425.251 87.1532 425.015 87.1532ZM409.202 90.1032C409.202 91.8142 410.382 93.0532 412.212 93.0532C413.038 93.0532 413.627 92.8764 414.217 92.4044L413.627 91.4014C413.156 91.7553 412.684 91.9322 412.152 91.9322C411.149 91.9322 410.441 91.2242 410.441 90.1032C410.441 89.0413 411.149 88.3331 412.152 88.2742C412.684 88.2742 413.156 88.4511 413.627 88.8053L414.217 87.8022C413.627 87.33 413.038 87.1532 412.212 87.1532C410.382 87.1532 409.202 88.3922 409.202 90.1032ZM420.649 90.1032V87.2711H419.41V87.9791C418.997 87.4483 418.407 87.1532 417.64 87.1532C416.047 87.1532 414.808 88.3922 414.808 90.1032C414.808 91.8142 416.047 93.0532 417.64 93.0532C418.466 93.0532 419.056 92.7584 419.41 92.2273V92.9353H420.649V90.1032ZM416.106 90.1032C416.106 89.1001 416.755 88.2742 417.817 88.2742C418.82 88.2742 419.528 89.0413 419.528 90.1032C419.528 91.1063 418.82 91.9322 417.817 91.9322C416.755 91.8731 416.106 91.1063 416.106 90.1032ZM401.296 87.1532C399.644 87.1532 398.464 88.3331 398.464 90.1032C398.464 91.8733 399.644 93.0532 401.355 93.0532C402.181 93.0532 403.007 92.8173 403.656 92.2864L403.066 91.4014C402.594 91.7553 402.004 91.9913 401.414 91.9913C400.647 91.9913 399.88 91.6374 399.703 90.634H403.892V90.1623C403.951 88.3331 402.889 87.1532 401.296 87.1532H401.296ZM401.296 88.2151C402.063 88.2151 402.594 88.6873 402.712 89.5724H399.762C399.88 88.8053 400.411 88.2151 401.296 88.2151ZM432.036 90.1032V85.0291H430.797V87.9791C430.384 87.4483 429.794 87.1532 429.027 87.1532C427.434 87.1532 426.195 88.3922 426.195 90.1032C426.195 91.8142 427.434 93.0532 429.027 93.0532C429.853 93.0532 430.443 92.7584 430.797 92.2273V92.9353H432.036V90.1032ZM427.493 90.1032C427.493 89.1001 428.142 88.2742 429.204 88.2742C430.207 88.2742 430.915 89.0413 430.915 90.1032C430.915 91.1063 430.207 91.9322 429.204 91.9322C428.142 91.8731 427.493 91.1063 427.493 90.1032ZM386.074 90.1032V87.2711H384.834V87.9791C384.421 87.4483 383.831 87.1532 383.064 87.1532C381.471 87.1532 380.232 88.3922 380.232 90.1032C380.232 91.8142 381.471 93.0532 383.064 93.0532C383.891 93.0532 384.48 92.7584 384.834 92.2273V92.9353H386.074V90.1032ZM381.471 90.1032C381.471 89.1001 382.12 88.2742 383.182 88.2742C384.185 88.2742 384.894 89.0413 384.894 90.1032C384.894 91.1063 384.185 91.9322 383.182 91.9322C382.12 91.8731 381.471 91.1063 381.471 90.1032Z" fill="white"/>
<path d="M392.858 59.4288C392.858 52.6436 396.044 46.6253 400.941 42.731C397.342 39.899 392.799 38.188 387.843 38.188C376.101 38.188 366.602 47.6872 366.602 59.4288C366.602 71.1701 376.101 80.6696 387.843 80.6696C392.799 80.6696 397.342 78.9586 400.941 76.1263C396.044 72.2911 392.858 66.2139 392.858 59.4288Z" fill="#EB001B"/>
<path d="M435.34 59.4288C435.34 71.1701 425.84 80.6696 414.099 80.6696C409.143 80.6696 404.6 78.9586 401 76.1263C405.957 72.2323 409.084 66.2139 409.084 59.4288C409.084 52.6436 405.898 46.6253 401 42.731C404.599 39.899 409.143 38.188 414.099 38.188C425.84 38.188 435.34 47.7463 435.34 59.4288H435.34Z" fill="#F79E1B"/>
<path d="M54.6732 104.758C57.4452 104.338 59.3492 102.602 59.3492 100.026C59.3492 97.7864 57.8932 96.2744 55.1772 95.2384L53.1052 94.4544C51.5652 93.7824 50.8652 93.2504 50.8652 92.1584C50.8652 90.8984 52.0132 90.2824 53.4412 90.2824C54.8972 90.2824 55.9332 90.9264 56.9132 92.3544L58.9292 90.8424C57.9492 89.1064 56.5212 88.0704 54.6732 87.7344V84.4584H51.9572V87.7904C49.5772 88.2664 47.9252 89.9184 47.9252 92.1864C47.9252 94.2304 49.2692 95.7984 51.9852 96.8624L53.9172 97.6184C55.6252 98.3744 56.4092 98.9624 56.4092 100.082C56.4092 101.426 55.1772 102.238 53.4692 102.238C51.5932 102.238 50.0812 101.286 48.8772 99.4104L46.8332 100.922C47.9532 102.938 49.7172 104.282 51.9572 104.702V108.09H54.6732V104.758ZM75.1443 99.4664C75.1443 95.7424 72.1483 93.6984 68.8443 93.6984C68.0043 93.6984 67.2203 93.7824 66.4923 93.9504V89.6104H74.1083V86.9504H63.5803V96.2464H67.8363C70.5523 96.2464 72.0923 97.4224 72.0923 99.5224C72.0923 101.65 70.4683 103.022 68.2563 103.022C66.2683 103.022 64.8963 101.986 63.7763 100.278L61.7043 101.762C62.9643 104.142 65.2883 105.738 68.3403 105.738C72.0083 105.738 75.1443 103.19 75.1443 99.4664ZM78.6609 110.414H81.0409L82.3569 102.462H78.9409L78.6609 110.414ZM85.0871 86.9504V89.6104H93.7671L85.6191 105.43H88.8391L97.7711 87.7624V86.9504H85.0871ZM112.715 99.4664C112.715 95.7424 109.719 93.6984 106.415 93.6984C105.575 93.6984 104.791 93.7824 104.063 93.9504V89.6104H111.679V86.9504H101.151V96.2464H105.407C108.123 96.2464 109.663 97.4224 109.663 99.5224C109.663 101.65 108.039 103.022 105.827 103.022C103.839 103.022 102.467 101.986 101.347 100.278L99.2746 101.762C100.535 104.142 102.859 105.738 105.911 105.738C109.579 105.738 112.715 103.19 112.715 99.4664ZM115.783 96.0224C115.783 101.482 118.107 105.738 122.839 105.738C127.599 105.738 129.867 101.482 129.867 96.0224C129.867 93.1944 129.279 90.9264 128.075 89.2184C126.899 87.5104 125.163 86.6424 122.839 86.6424C120.515 86.6424 118.779 87.5104 117.575 89.2464C116.371 90.9544 115.783 93.2224 115.783 96.0224ZM126.787 96.0504C126.787 100.418 125.555 103.022 122.839 103.022C120.123 103.022 118.863 100.418 118.863 96.0504C118.863 91.5984 120.179 89.3584 122.839 89.3584C125.471 89.3584 126.787 91.5984 126.787 96.0504ZM133.458 110.414H135.838L137.154 102.462H133.738L133.458 110.414ZM145.869 102.854L149.117 99.4104C150.405 98.0384 151.385 96.8624 152.029 95.8264C152.701 94.7904 153.037 93.6424 153.037 92.3824C153.037 89.1344 150.433 86.6424 146.905 86.6424C143.125 86.6424 140.689 89.5264 140.689 92.5504C140.689 93.1104 140.745 93.6424 140.885 94.1464H143.881C143.797 93.5864 143.741 93.1104 143.741 92.7184C143.741 90.8144 145.001 89.3584 146.877 89.3584C148.753 89.3584 149.957 90.7304 149.957 92.6064C149.957 94.1744 149.061 95.5184 147.017 97.6744L140.437 104.758V105.43H153.681V102.854H145.869ZM156.881 96.0224C156.881 101.482 159.205 105.738 163.937 105.738C168.697 105.738 170.965 101.482 170.965 96.0224C170.965 93.1944 170.377 90.9264 169.173 89.2184C167.997 87.5104 166.261 86.6424 163.937 86.6424C161.613 86.6424 159.877 87.5104 158.673 89.2464C157.469 90.9544 156.881 93.2224 156.881 96.0224ZM167.885 96.0504C167.885 100.418 166.653 103.022 163.937 103.022C161.221 103.022 159.961 100.418 159.961 96.0504C159.961 91.5984 161.277 89.3584 163.937 89.3584C166.569 89.3584 167.885 91.5984 167.885 96.0504Z" fill="white"/>
<path opacity="0.54" d="M46.4272 54.2052C46.3712 56.8512 48.6532 59.0212 51.2852 58.9792C53.0072 58.9792 54.4632 58.1532 55.2472 56.8512L54.1272 56.0252C53.4692 57.0472 52.5172 57.6212 51.2992 57.6212C49.4092 57.6212 47.9672 56.1652 47.9672 54.2052C47.9672 52.2452 49.4092 50.7892 51.2992 50.7892C52.5172 50.7892 53.4692 51.3632 54.1272 52.3852L55.2472 51.5592C54.4492 50.2572 52.9792 49.4312 51.2852 49.4312C48.6532 49.3892 46.3712 51.5592 46.4272 54.2052ZM56.8544 55.9412C56.8544 57.7892 58.1424 58.9792 59.8644 58.9792C61.5444 58.9792 62.8464 57.7892 62.8464 55.9412V51.9512H61.3764V56.0532C61.3764 57.0052 60.7184 57.6212 59.8644 57.6212C58.9684 57.6212 58.3104 57.0052 58.3104 56.0532V51.9512H56.8544V55.9412ZM68.8427 51.9512C68.6747 51.9092 68.4927 51.8812 68.2827 51.8812C67.4987 51.8812 66.7707 52.2312 66.2807 52.8472V51.9512H64.9087V58.8252H66.3787V55.1572C66.3787 53.9392 67.2327 53.2532 68.3947 53.2532H68.8427V51.9512ZM74.0927 51.9512C73.9247 51.9092 73.7427 51.8812 73.5327 51.8812C72.7487 51.8812 72.0207 52.2312 71.5307 52.8472V51.9512H70.1587V58.8252H71.6287V55.1572C71.6287 53.9392 72.4827 53.2532 73.6447 53.2532H74.0927V51.9512ZM81.46 55.8712C81.53 55.5492 81.572 55.2412 81.572 54.9472C81.572 53.1552 80.214 51.7972 78.394 51.7972C76.448 51.7552 74.796 53.4212 74.838 55.3952C74.838 57.4252 76.434 58.9792 78.534 58.9792C79.584 58.9792 80.494 58.6152 81.278 57.8732L80.578 56.8652C79.962 57.4112 79.29 57.6772 78.576 57.6772C77.4 57.6772 76.518 56.9912 76.336 55.8712H81.46ZM76.364 54.7232C76.588 53.7012 77.372 53.0432 78.338 53.0432C79.304 53.0432 80.088 53.6732 80.102 54.7232H76.364ZM89.2624 54.5272C89.2624 52.8892 88.2964 51.7972 86.6864 51.7972C85.8324 51.7972 85.1464 52.0772 84.6284 52.6232V51.9512H83.2564V58.8252H84.7264V54.7232C84.7264 53.7852 85.3844 53.1272 86.2944 53.1272C87.1904 53.1272 87.7924 53.7712 87.7924 54.7232V58.8252H89.2624V54.5272ZM95.3971 57.5792C94.9911 57.6212 94.6971 57.6492 94.4871 57.6492C93.5911 57.6492 93.1291 57.3412 93.1291 56.4592V53.2252H95.1731V51.9512H93.1291V50.1452H91.6451V51.9512H90.5251V53.2252H91.6451V56.5852C91.6451 58.1952 92.5971 58.9792 94.1791 58.9792C94.5291 58.9792 94.9351 58.9232 95.3971 58.8252V57.5792ZM107.867 56.1372C107.867 55.0032 107.223 54.1352 106.145 53.7852C106.649 53.3512 106.915 52.7632 106.915 52.0492C106.915 50.6212 105.809 49.5852 104.143 49.5852H100.909V58.8252H104.871C106.677 58.8252 107.867 57.6912 107.867 56.1372ZM104.003 50.8872C104.913 50.8872 105.431 51.3492 105.431 52.1192C105.431 52.8892 104.913 53.3792 104.003 53.3792H102.365V50.8872H104.003ZM106.369 56.0952C106.369 56.9772 105.767 57.5232 104.745 57.5232H102.365V54.6532H104.745C105.767 54.6532 106.369 55.2132 106.369 56.0952ZM114.925 54.6672C114.925 52.8192 113.805 51.7972 112.111 51.7972C110.921 51.7972 109.899 52.2732 109.213 53.2672L110.067 54.1352C110.641 53.4492 111.201 53.1132 111.971 53.1132C112.909 53.1132 113.441 53.6312 113.441 54.5832V55.0312H111.495C109.941 55.0312 108.961 55.8012 108.961 56.9912C108.961 58.1812 109.913 58.9792 111.355 58.9792C112.293 58.9792 113.049 58.6572 113.553 58.0552V58.8252H114.925V54.6672ZM113.441 56.2212C113.441 57.1592 112.657 57.8452 111.663 57.8452C110.949 57.8452 110.459 57.5092 110.459 56.9352C110.459 56.3752 110.893 56.0952 111.677 56.0952H113.441V56.2212ZM116.971 58.8252H118.441V48.3252H116.971V58.8252ZM126.027 54.6672C126.027 52.8192 124.907 51.7972 123.213 51.7972C122.023 51.7972 121.001 52.2732 120.315 53.2672L121.169 54.1352C121.743 53.4492 122.303 53.1132 123.073 53.1132C124.011 53.1132 124.543 53.6312 124.543 54.5832V55.0312H122.597C121.043 55.0312 120.063 55.8012 120.063 56.9912C120.063 58.1812 121.015 58.9792 122.457 58.9792C123.395 58.9792 124.151 58.6572 124.655 58.0552V58.8252H126.027V54.6672ZM124.543 56.2212C124.543 57.1592 123.759 57.8452 122.765 57.8452C122.051 57.8452 121.561 57.5092 121.561 56.9352C121.561 56.3752 121.995 56.0952 122.779 56.0952H124.543V56.2212ZM134.079 54.5272C134.079 52.8892 133.113 51.7972 131.503 51.7972C130.649 51.7972 129.963 52.0772 129.445 52.6232V51.9512H128.073V58.8252H129.543V54.7232C129.543 53.7852 130.201 53.1272 131.111 53.1272C132.007 53.1272 132.609 53.7712 132.609 54.7232V58.8252H134.079V54.5272ZM135.692 55.3812C135.692 57.3832 137.302 58.9792 139.332 58.9792C140.578 58.9792 141.614 58.3772 142.23 57.3832L141.194 56.5852C140.69 57.2712 140.074 57.6212 139.346 57.6212C138.114 57.6212 137.19 56.6412 137.19 55.3812C137.19 54.1352 138.114 53.1552 139.346 53.1552C140.088 53.1552 140.704 53.5052 141.194 54.2052L142.23 53.3932C141.628 52.3992 140.606 51.7972 139.332 51.7972C137.358 51.7692 135.65 53.4072 135.692 55.3812ZM149.901 55.8712C149.971 55.5492 150.013 55.2412 150.013 54.9472C150.013 53.1552 148.655 51.7972 146.835 51.7972C144.889 51.7552 143.237 53.4212 143.279 55.3952C143.279 57.4252 144.875 58.9792 146.975 58.9792C148.025 58.9792 148.935 58.6152 149.719 57.8732L149.019 56.8652C148.403 57.4112 147.731 57.6772 147.017 57.6772C145.841 57.6772 144.959 56.9912 144.777 55.8712H149.901ZM144.805 54.7232C145.029 53.7012 145.813 53.0432 146.779 53.0432C147.745 53.0432 148.529 53.6732 148.543 54.7232H144.805Z" fill="white"/>
<defs>
<linearGradient id="paint0_linear_232_4942" x1="242.242" y1="-46.5971" x2="252.496" y2="316.249" gradientUnits="userSpaceOnUse">
<stop stop-color="#9C2CF3"/>
<stop offset="1" stop-color="#3A49F9"/>
</linearGradient>
</defs>
</svg>
