<svg width="23" height="18" viewBox="0 0 23 18" fill="none" xmlns="http://www.w3.org/2000/svg">
<path fill-rule="evenodd" clip-rule="evenodd" d="M16.1764 5.84326C16.7335 5.84326 17.1851 6.29488 17.1851 6.85197C17.1851 7.67684 18.1213 8.15299 18.7879 7.66715L20.3922 6.49795C21.5011 5.68975 21.4976 4.0344 20.3853 3.23085L18.7537 2.05211C18.0995 1.5795 17.1851 2.04694 17.1851 2.854C17.1851 3.40036 16.7422 3.84326 16.1959 3.84326H14.9234C14.6745 3.84326 14.4344 3.93615 14.2503 4.10377L4.88255 12.6313C4.44373 13.0308 3.87166 13.2521 3.27825 13.2521H1.89502C1.34273 13.2521 0.89502 13.6999 0.89502 14.2521C0.89502 14.8044 1.34274 15.2521 1.89502 15.2521H4.58752C4.83651 15.2521 5.07655 15.1592 5.26068 14.9916L14.9236 6.19537C15.1725 5.96882 15.497 5.84326 15.8335 5.84326H16.1764Z" fill="#1B1D4E"/>
<path fill-rule="evenodd" clip-rule="evenodd" d="M16.1764 12.9867C16.7335 12.9867 17.1851 12.5351 17.1851 11.9781C17.1851 11.1532 18.1213 10.6771 18.7879 11.1629L20.3922 12.3321C21.5011 13.1403 21.4976 14.7957 20.3853 15.5992L18.7537 16.7779C18.0995 17.2506 17.1851 16.7831 17.1851 15.976C17.1851 15.4297 16.7422 14.9867 16.1958 14.9867H14.9234C14.6745 14.9867 14.4344 14.8939 14.2503 14.7262L4.88255 6.19871C4.44373 5.79925 3.87166 5.57786 3.27825 5.57786H1.89502C1.34273 5.57786 0.89502 5.13015 0.89502 4.57786C0.89502 4.02558 1.34274 3.57786 1.89502 3.57786H4.58752C4.83651 3.57786 5.07655 3.67076 5.26068 3.83837L14.9236 12.6346C15.1725 12.8612 15.497 12.9867 15.8335 12.9867H16.1764Z" fill="#1B1D4E"/>
</svg>
