<svg width="23" height="20" viewBox="0 0 23 20" fill="none" xmlns="http://www.w3.org/2000/svg">
<path d="M19.2884 12.7719C17.8604 12.7719 16.7114 11.4998 16.7114 10.0719V10.0719V10.0719C16.7114 8.61845 17.8334 7.37187 19.2868 7.37187H19.9622C21.3066 7.37187 22.5549 8.2416 22.6299 9.584C22.6494 9.93346 22.6479 10.2837 22.6255 10.633C22.5421 11.9311 21.3363 12.7719 20.0356 12.7719H19.2884ZM11.768 5.57187C13.1242 5.57187 14.1727 4.33568 13.74 3.05033C13.1044 1.16231 12.3061 0.171875 11.768 0.171875C11.23 0.171875 10.4316 1.16231 9.79604 3.05033C9.36335 4.33568 10.4118 5.57187 11.768 5.57187V5.57187ZM11.7644 14.5719C10.4087 14.5719 9.35922 15.8058 9.79092 17.0909C10.4257 18.9806 11.2297 19.9719 11.768 19.9719C12.3058 19.9719 13.1035 18.9826 13.7389 17.0968C14.1725 15.8098 13.1225 14.5719 11.7644 14.5719V14.5719ZM14.7341 10.0719C14.7341 8.51532 13.4563 7.37187 11.8998 7.37187H11.6346C10.1017 7.37187 8.80199 8.53898 8.80199 10.0719V10.0719V10.0719C8.80199 11.6048 10.1017 12.7719 11.6346 12.7719H11.9015C13.4343 12.7719 14.7341 11.6048 14.7341 10.0719V10.0719V10.0719ZM6.82464 10.0719V10.0719C6.82464 8.64392 5.67564 7.37187 4.24768 7.37187H3.50049C2.19974 7.37187 0.993965 8.21267 0.910584 9.51074C0.888144 9.86009 0.886678 10.2103 0.906187 10.5597C0.981126 11.9021 2.2294 12.7719 3.57389 12.7719H4.24924C5.70267 12.7719 6.82464 11.5253 6.82464 10.0719V10.0719ZM7.45532 16.0085C7.25715 15.1884 6.55348 14.5719 5.70983 14.5719H5.46717C3.95703 14.5719 3.07992 16.1806 4.21488 17.1768C4.42607 17.3621 4.64576 17.5399 4.8735 17.7097C5.02336 17.8214 5.1763 17.9293 5.33213 18.0333C6.55328 18.8486 7.80022 17.4356 7.45532 16.0085V16.0085ZM17.8262 14.5719C16.9826 14.5719 16.2789 15.1884 16.0807 16.0085V16.0085C15.7358 17.4356 16.9828 18.8486 18.2039 18.0333C18.3597 17.9293 18.5127 17.8214 18.6625 17.7097C18.8903 17.5399 19.11 17.3621 19.3212 17.1768C20.4561 16.1806 19.579 14.5719 18.0689 14.5719H17.8262ZM16.0807 4.13529C16.2789 4.95533 16.9826 5.57187 17.8262 5.57187H18.0689C19.579 5.57187 20.4561 3.96318 19.3212 2.96699C19.11 2.78163 18.8903 2.60381 18.6625 2.43405C18.5127 2.32234 18.3597 2.21443 18.2039 2.1104C16.9828 1.29518 15.7358 2.7081 16.0807 4.13529V4.13529ZM5.70983 5.57187C6.55348 5.57187 7.25715 4.95533 7.45532 4.13529V4.13529C7.80022 2.7081 6.55328 1.29518 5.33213 2.1104C5.1763 2.21443 5.02336 2.32234 4.8735 2.43405C4.64576 2.60381 4.42607 2.78163 4.21488 2.96699C3.07993 3.96318 3.95703 5.57187 5.46717 5.57187H5.70983Z" fill="#4F37FD"/>
</svg>
